<svg xmlns="http://www.w3.org/2000/svg" width="128" height="128" viewBox="0 0 128 128" role="img" aria-label="徐桂兰 avatar">
  <defs>
    <clipPath id="avatarClip">
      <circle cx="64" cy="64" r="60" />
    </clipPath>
  </defs>
  <g clip-path="url(#avatarClip)">
    <rect width="128" height="128" fill="#fff6e8" />
    <circle cx="26" cy="21" r="18" fill="rgba(255,255,255,0.35)" />
    <circle cx="104" cy="23" r="12" fill="rgba(255,255,255,0.20)" />
    <path d="M0 92c16-19 35-28 60-28 28 0 46 10 68 34v30H0z" fill="rgba(255,255,255,0.12)" />
    <path d="M24 128c4-18 16-30 40-30s36 12 40 30z" fill="#0d8a73" />
    
    <ellipse cx="64" cy="98" rx="18" ry="11" fill="#f1c27d" />
    <circle cx="64" cy="62" r="34" fill="#f1c27d" />
    <path d="M28 54c2-18 17-32 36-32 20 0 35 14 37 33-8-5-16-9-37-9-18 0-27 3-36 8z" fill="#2f4858" />
    <circle cx="51" cy="62" r="3.3" fill="#1e2c34" />
    <circle cx="77" cy="62" r="3.3" fill="#1e2c34" />
    <path d="M64 64l-3 8h6z" fill="rgba(137,88,68,0.35)" />
    <path d="M52 79h24" fill="none" stroke="#7b3f32" stroke-width="3" stroke-linecap="round" />
    
    <circle cx="100" cy="102" r="17" fill="rgba(24,38,42,0.14)" />
    <text x="100" y="108" text-anchor="middle" font-family="Manrope, sans-serif" font-size="16" font-weight="800" fill="#1f3340">徐</text>
  </g>
  <circle cx="64" cy="64" r="60" fill="none" stroke="rgba(24,38,42,0.12)" stroke-width="2" />
</svg>
